<svg xmlns="http://www.w3.org/2000/svg" width="47.451" height="59.996" viewBox="0 0 47.451 59.996"><defs><style>.a{fill:#fff;}</style></defs><g transform="translate(-3547.671 -2050.166)"><path class="a" d="M3593.606,2070.243h0a7.5,7.5,0,0,1-1.094-2.009,7.83,7.83,0,0,1-.069-2.383,5.036,5.036,0,0,0-3.594-6.187,5.028,5.028,0,0,1-3.225-3.225,5.036,5.036,0,0,0-6.187-3.594,7.809,7.809,0,0,1-2.383-.069,7.5,7.5,0,0,1-2.009-1.094,5.149,5.149,0,0,0-7.3,0,7.489,7.489,0,0,1-2.009,1.094,7.808,7.808,0,0,1-2.383.069,5.037,5.037,0,0,0-6.187,3.594,5.028,5.028,0,0,1-3.225,3.225,5.036,5.036,0,0,0-3.594,6.187,7.813,7.813,0,0,1-.069,2.383,7.5,7.5,0,0,1-1.094,2.009,5.15,5.15,0,0,0,0,7.3,7.494,7.494,0,0,1,1.094,2.009,7.814,7.814,0,0,1,.07,2.383,5.036,5.036,0,0,0,3.594,6.187,7.667,7.667,0,0,1,2,1.226,7.02,7.02,0,0,1,1.142,1.83l-6.369,11.717a1.629,1.629,0,0,0,1.392,2.406l4.884.118,2.755,4.034a1.618,1.618,0,0,0,1.343.711l.085,0a1.617,1.617,0,0,0,1.349-.849l6.688-12.3a4.218,4.218,0,0,0,4.37,0l6.687,12.3a1.618,1.618,0,0,0,1.349.849l.085,0a1.616,1.616,0,0,0,1.343-.711l2.756-4.034,4.884-.118a1.629,1.629,0,0,0,1.392-2.406l-2.329-4.285-4.04-7.432a7.013,7.013,0,0,1,1.142-1.83,7.663,7.663,0,0,1,2-1.226,5.036,5.036,0,0,0,3.594-6.187,7.809,7.809,0,0,1,.069-2.383,7.5,7.5,0,0,1,1.094-2.009,5.15,5.15,0,0,0,0-7.3Zm-32.525,38.052-2.677-3.919a1.634,1.634,0,0,0-1.306-.71l-4.744-.115,5.728-10.537a4.42,4.42,0,0,0,1.449,1.427,6.6,6.6,0,0,0,3.824.5,7.815,7.815,0,0,1,2.383.069,7.367,7.367,0,0,1,1.98,1.075Zm27.126-8.849,2.232,4.106-4.744.115a1.633,1.633,0,0,0-1.306.71l-2.677,3.919-6.638-12.212a7.362,7.362,0,0,1,1.98-1.075,7.807,7.807,0,0,1,2.383-.069,6.6,6.6,0,0,0,3.825-.5,4.423,4.423,0,0,0,1.449-1.428Zm3.943-22.882h0a8.82,8.82,0,0,0-1.332,2.534,9.15,9.15,0,0,0-.125,2.949,3.431,3.431,0,0,1-2.617,4.5,6.643,6.643,0,0,0-4.026,4.026,3.43,3.43,0,0,1-4.5,2.616,9.157,9.157,0,0,0-2.949.125,8.812,8.812,0,0,0-2.534,1.332,3.538,3.538,0,0,1-5.344,0,8.811,8.811,0,0,0-2.534-1.332,6.216,6.216,0,0,0-1.609-.183c-.448,0-.9.029-1.34.058a3.431,3.431,0,0,1-4.5-2.617,6.643,6.643,0,0,0-4.026-4.026,3.431,3.431,0,0,1-2.617-4.5,9.165,9.165,0,0,0-.125-2.949,8.819,8.819,0,0,0-1.332-2.534,3.538,3.538,0,0,1,0-5.343,8.823,8.823,0,0,0,1.332-2.534,9.163,9.163,0,0,0,.125-2.949,3.431,3.431,0,0,1,2.617-4.5,6.644,6.644,0,0,0,4.026-4.026,3.431,3.431,0,0,1,4.5-2.617,9.149,9.149,0,0,0,2.949-.125,8.806,8.806,0,0,0,2.534-1.332,3.539,3.539,0,0,1,5.344,0,8.812,8.812,0,0,0,2.534,1.332,9.157,9.157,0,0,0,2.949.125,3.431,3.431,0,0,1,4.5,2.617,6.645,6.645,0,0,0,4.025,4.026,3.43,3.43,0,0,1,2.617,4.5,9.15,9.15,0,0,0,.125,2.949,8.812,8.812,0,0,0,1.332,2.534,3.538,3.538,0,0,1,0,5.344Z"/><path class="a" d="M3615.539,2097.617a18.271,18.271,0,0,0-2.388-.157h0a18.035,18.035,0,0,0-12.215,4.714l-.016.014q-.129.118-.256.239l-.085.081c-.07.067-.139.135-.209.2l-.117.116-.074.073-.052.053-.022.025a18.257,18.257,0,0,0-2.578,3.359l-.013.02-.044.077q-.111.19-.219.383l-.056.1q-.136.247-.264.5l-.017.035q-.123.244-.239.492l-.025.055a18.074,18.074,0,0,0-1.637,6.377c0,.038,0,.076-.007.114-.009.149-.017.3-.022.448,0,.049,0,.1-.005.148-.006.18-.009.361-.009.543,0,.005,0,.01,0,.016,0,.277.007.552.02.826a18.183,18.183,0,1,0,20.552-18.853Zm-18.808,17.443c.006-.17.014-.341.026-.51,0-.006,0-.013,0-.019a16.413,16.413,0,0,1,1.49-5.814l0,0q.229-.492.491-.97l.017-.031q.116-.211.24-.419a16.475,16.475,0,0,1,2.462-3.193c.068-.069.137-.137.206-.2l.091-.088c.059-.057.119-.114.179-.17l.132-.123.12-.108c.067-.06.134-.12.2-.179l.026-.023a16.368,16.368,0,0,1,10.733-3.99c.2,0,.4.005.6.012a16.43,16.43,0,1,1-17.031,16.418c0-.179,0-.358.009-.537C3596.73,2115.091,3596.731,2115.075,3596.731,2115.06Z" transform="translate(-41.754 -41.752)"/><g transform="translate(3562.544 2061.626)"><path class="a" d="M3688.537,2148.6c-.351-.241-1.424-.974-2.34-.446-.9.518-.806,1.761-.767,2.292l0,.041c0,.031,0,.056,0,.074v4.636a2.208,2.208,0,0,1-1.975,2.181h-.02a2.21,2.21,0,0,1-1.977-2.181v-4.625c0-.027,0-.057.006-.094l0-.031c.04-.531.132-1.774-.767-2.292-.915-.527-1.988.2-2.341.445a8.582,8.582,0,0,0,1.131,14.855l.093.043.06.028v6.874a2.1,2.1,0,0,0,2.1,2.1h3.411a2.1,2.1,0,0,0,2.1-2.1v-6.875l.06-.027q.336-.156.653-.339a8.579,8.579,0,0,0,.568-14.558Zm-2.465,13.513a.881.881,0,0,0-.573.824v7.462a.345.345,0,0,1-.34.34h-3.411a.345.345,0,0,1-.34-.34v-7.462a.881.881,0,0,0-.573-.824,6.826,6.826,0,0,1-1.477-12.061c.078-.054.155-.1.226-.145l.159-.094,0,.185c0,.129-.013.253-.018.318-.007.1-.013.175-.013.248v4.632a3.959,3.959,0,0,0,3.687,3.941.919.919,0,0,0,.116,0,3.957,3.957,0,0,0,3.684-3.941v-4.632c0-.073-.006-.146-.011-.24-.006-.071-.015-.2-.019-.326l0-.185.159.094c.072.042.148.09.226.144a6.828,6.828,0,0,1-1.474,12.063Z" transform="translate(-3674.6 -2147.969)"/></g></g></svg>