<svg xmlns="http://www.w3.org/2000/svg" width="60.354" height="59.997" viewBox="0 0 60.354 59.997"><defs><style>.a{fill:#fff;}</style></defs><g transform="translate(5368.413 -441.677)"><g transform="translate(-5362.751 441.677)"><path class="a" d="M-5266.78,772.318a4.158,4.158,0,0,0-5.517-1.354l-9.613,4.937-.123-.127a4.135,4.135,0,0,0-3-1.276h-6.479a2.251,2.251,0,0,1-.532-.043l-.036-.016a2.491,2.491,0,0,1-.4-.345l-.06-.056c-5.15-4.848-9.5-4.54-14.454-2.586a3.669,3.669,0,0,1-1.726.374h-1.647l-.053-.164a2.922,2.922,0,0,0-2.776-2.006h-4.764a2.926,2.926,0,0,0-2.921,2.924v12.5a2.924,2.924,0,0,0,2.921,2.92h4.764a2.923,2.923,0,0,0,2.776-2l.053-.163h2.852a1.479,1.479,0,0,1,.577.087c.1.027.22.062.376.1l12.326,3.3c.546.148,1.045.292,1.527.431a15.433,15.433,0,0,0,4.226.834,9.268,9.268,0,0,0,5.218-1.884l.023-.017,2.354-1.679,12.843-9.145A4.123,4.123,0,0,0-5266.78,772.318Zm-45.4,12.766a1.03,1.03,0,0,1-1.018,1.015h-4.764a1.028,1.028,0,0,1-1.015-1.015v-12.5a1.017,1.017,0,0,1,1.015-1.018h4.764a1.031,1.031,0,0,1,1.018,1.018Zm43.027-8.771-12.836,9.141h0l0,0-2.337,1.666c-3.219,2.141-4.67,1.722-7.845.8-.49-.142-1-.288-1.564-.442l-12.327-3.3-.354-.1a3.092,3.092,0,0,0-1.092-.157h-2.758v-10.2h1.567l.068,0a5.336,5.336,0,0,0,2.344-.505c4.51-1.779,7.994-1.99,12.449,2.2l.058.055a2.667,2.667,0,0,0,2.277.922h6.479a2.265,2.265,0,0,1,1.977,1.166l.011.02a2.246,2.246,0,0,1,.273,1.074,2.261,2.261,0,0,1-2.261,2.258h-10.5a.954.954,0,0,0-.953.953.954.954,0,0,0,.953.953h10.5a4.17,4.17,0,0,0,4.167-4.164,4.111,4.111,0,0,0-.1-.908l-.039-.18,9.576-4.918a2.255,2.255,0,0,1,3.025.66A2.241,2.241,0,0,1-5269.15,776.313Z" transform="translate(5320.88 -730.593)"/><g transform="translate(27.121)"><path class="a" d="M-5078.268,444.234a8.445,8.445,0,0,0-6.172-2.557,8.447,8.447,0,0,0-6.172,2.557,8.447,8.447,0,0,0-2.559,6.172,8.445,8.445,0,0,0,2.559,6.172,8.447,8.447,0,0,0,6.172,2.557,8.445,8.445,0,0,0,6.172-2.557,8.445,8.445,0,0,0,2.557-6.172A8.447,8.447,0,0,0-5078.268,444.234Zm-1.207,11.139a6.708,6.708,0,0,1-4.965,2.057,6.715,6.715,0,0,1-4.967-2.057,6.716,6.716,0,0,1-2.058-4.967,6.711,6.711,0,0,1,2.058-4.965,6.71,6.71,0,0,1,4.967-2.058,6.7,6.7,0,0,1,4.965,2.058,6.706,6.706,0,0,1,2.058,4.965A6.71,6.71,0,0,1-5079.474,455.373Z" transform="translate(5093.17 -441.677)"/></g><g transform="translate(20.793 17.628)"><path class="a" d="M-5115.788,600.1a21.855,21.855,0,0,0-.3-2.327,18.5,18.5,0,0,0-.571-2.334,11.511,11.511,0,0,0-.953-2.162,8.088,8.088,0,0,0-1.424-1.856,6.221,6.221,0,0,0-2.03-1.274,7.03,7.03,0,0,0-2.6-.47,2.564,2.564,0,0,0-1.327.58c-.445.291-.958.621-1.52.98a8.921,8.921,0,0,1-2.02.891,7.9,7.9,0,0,1-4.953,0,8.877,8.877,0,0,1-2.018-.891c-.568-.363-1.08-.693-1.522-.98a2.555,2.555,0,0,0-1.327-.58,7.042,7.042,0,0,0-2.6.47,6.244,6.244,0,0,0-2.029,1.274,8.111,8.111,0,0,0-1.423,1.856,11.544,11.544,0,0,0-.952,2.162,18.344,18.344,0,0,0-.572,2.334,21.647,21.647,0,0,0-.3,2.327c-.049.705-.074,1.44-.074,2.182a5.958,5.958,0,0,0,1.762,4.506,6.382,6.382,0,0,0,4.567,1.659h17.928a6.387,6.387,0,0,0,4.568-1.659,5.956,5.956,0,0,0,1.761-4.506C-5115.714,601.537-5115.739,600.8-5115.788,600.1Zm-2.864,5.451a4.052,4.052,0,0,1-1.471.9,5.764,5.764,0,0,1-1.92.294h-17.928a4.669,4.669,0,0,1-3.391-1.19,4.256,4.256,0,0,1-1.233-3.269c0-.706.022-1.4.069-2.064a19.95,19.95,0,0,1,.276-2.144,16.485,16.485,0,0,1,.516-2.116,9.752,9.752,0,0,1,.811-1.839,6.413,6.413,0,0,1,1.121-1.466,4.5,4.5,0,0,1,1.478-.921,5.271,5.271,0,0,1,1.8-.348l.062,0,.056.03c.118.063.271.155.452.273.464.3.98.636,1.535.99a10.5,10.5,0,0,0,2.411,1.076,9.61,9.61,0,0,0,6,0,10.58,10.58,0,0,0,2.412-1.078c.593-.379,1.095-.7,1.534-.989.228-.148.372-.23.451-.273l.055-.03.063,0a5.276,5.276,0,0,1,1.8.348,4.509,4.509,0,0,1,1.478.921,6.409,6.409,0,0,1,1.121,1.467,9.743,9.743,0,0,1,.812,1.838,16.713,16.713,0,0,1,.517,2.116,20.28,20.28,0,0,1,.275,2.144v.01c.045.659.069,1.349.069,2.055A4.256,4.256,0,0,1-5118.652,605.552Z" transform="translate(5146.3 -589.677)"/></g></g><path class="a" d="M-5357.447,521.436h0a10.978,10.978,0,0,0-10.966,10.966,10.978,10.978,0,0,0,10.966,10.966,10.978,10.978,0,0,0,10.966-10.966A11,11,0,0,0-5357.447,521.436Zm9.123,10.966a9.148,9.148,0,0,1-9.123,9.123,9.133,9.133,0,0,1-9.123-9.123,9.133,9.133,0,0,1,9.123-9.123A9.133,9.133,0,0,1-5348.324,532.4Z" transform="translate(0 -70.259)"/><path class="a" d="M-5318.224,581.916a.919.919,0,0,0-1.282,0l-6.043,6.092-2.437-2.437a.923.923,0,0,0-1.3-.023.917.917,0,0,0-.281.647.917.917,0,0,0,.259.657l.021.02,3.091,3.091a.915.915,0,0,0,.651.27.915.915,0,0,0,.651-.27l6.7-6.745A.923.923,0,0,0-5318.224,581.916Z" transform="translate(-34.215 -123.307)"/></g></svg>