<svg xmlns="http://www.w3.org/2000/svg" width="59.082" height="60" viewBox="0 0 59.082 60"><defs><style>.a{fill:#fff;}</style></defs><g transform="translate(4552.951 264.84)"><g transform="translate(-4552.951 -264.84)"><path class="a" d="M-4493.993-221.954l-3.729-13.788a3.476,3.476,0,0,0-1.639-2.127c-.078-.044-.152-.082-.222-.114h0a.239.239,0,0,1-.137-.229h0c0-.066.007-.131.007-.2v-5.065a2.788,2.788,0,0,0-2.787-2.783h-.939a.237.237,0,0,1-.229-.175v0a20.439,20.439,0,0,0-1.959-4.724h0a.239.239,0,0,1,.039-.287l.666-.665a2.759,2.759,0,0,0,.814-1.968,2.777,2.777,0,0,0-.814-1.972l-3.577-3.577a2.779,2.779,0,0,0-1.973-.815,2.772,2.772,0,0,0-1.971.815l-.661.665a.238.238,0,0,1-.287.039h0a20.668,20.668,0,0,0-4.725-1.959h0a.237.237,0,0,1-.176-.23v-.938a2.788,2.788,0,0,0-2.783-2.788h-4.826a3.025,3.025,0,0,0-3.024,3.025v.7a.239.239,0,0,1-.176.23h0a20.644,20.644,0,0,0-4.724,1.959h0a.238.238,0,0,1-.287-.038l-.667-.665a2.759,2.759,0,0,0-1.969-.815,2.773,2.773,0,0,0-1.972.815l-3.577,3.577a2.772,2.772,0,0,0-.816,1.972,2.751,2.751,0,0,0,.816,1.968l.664.665a.237.237,0,0,1,.039.287h0a20.633,20.633,0,0,0-1.959,4.726h0a.237.237,0,0,1-.229.176h-.938a2.789,2.789,0,0,0-2.788,2.783v5.065a2.358,2.358,0,0,0,.03.381h0a.24.24,0,0,1-.108.238h0a3.474,3.474,0,0,0-1.5,2.045l-3.729,13.788a3.509,3.509,0,0,0,2.47,4.3l4.584,1.239a3.561,3.561,0,0,0,.912.123,3.5,3.5,0,0,0,2.4-.959h0a.239.239,0,0,1,.313-.013l14.553,11.665a3.446,3.446,0,0,0,2.171.76,3.465,3.465,0,0,0,2.718-1.3l.1-.121a3.416,3.416,0,0,0,.565-1.031h0a.239.239,0,0,1,.368-.113h0a3.448,3.448,0,0,0,2.068.689c.131,0,.26-.007.395-.02a3.461,3.461,0,0,0,2.328-1.28l.1-.121a3.508,3.508,0,0,0,.677-1.4v0a.239.239,0,0,1,.293-.177h0a3.524,3.524,0,0,0,1.257.09,3.422,3.422,0,0,0,2.324-1.271l.077-.09a3.467,3.467,0,0,0,.753-2.016h0a.237.237,0,0,1,.229-.228h0c.1,0,.186-.006.273-.016a3.45,3.45,0,0,0,2.333-1.278,3.461,3.461,0,0,0,.763-2.139v0a.238.238,0,0,1,.295-.228h0a6,6,0,0,0,1.444.191,5.05,5.05,0,0,0,1.777-.321l.123-.046.1.078a3.287,3.287,0,0,0,.351.236,3.513,3.513,0,0,0,1.74.468,3.589,3.589,0,0,0,.92-.123l4.583-1.239a3.477,3.477,0,0,0,2.125-1.64A3.48,3.48,0,0,0-4493.993-221.954Zm-51.567-21.52a.83.83,0,0,1,.833-.827h1.888a.977.977,0,0,0,.956-.765,18.517,18.517,0,0,1,2.436-5.876.968.968,0,0,0-.136-1.213l-1.34-1.339a.833.833,0,0,1-.235-.586.835.835,0,0,1,.235-.586l3.58-3.577a.84.84,0,0,1,.586-.239.849.849,0,0,1,.587.235l1.342,1.338a.994.994,0,0,0,1.215.134,18.537,18.537,0,0,1,5.873-2.436.974.974,0,0,0,.765-.952v-1.651a1.069,1.069,0,0,1,1.069-1.069h4.826a.831.831,0,0,1,.828.832v1.888a.969.969,0,0,0,.764.952,18.587,18.587,0,0,1,5.877,2.436.971.971,0,0,0,1.213-.133l1.338-1.339a.834.834,0,0,1,.587-.236.833.833,0,0,1,.586.236l3.58,3.58a.825.825,0,0,1,.241.589.82.82,0,0,1-.241.584l-1.338,1.339a.97.97,0,0,0-.133,1.213,18.664,18.664,0,0,1,2.437,5.876.973.973,0,0,0,.951.765h1.889a.831.831,0,0,1,.833.827v5.057a.161.161,0,0,1-.134.16h0c-.055.01-.144.028-.2.041l-.026.006-2.333.632-2.243.6a3.526,3.526,0,0,0-2.367,2.161v0a.239.239,0,0,1-.265.15h0c-3.109-.56-5.8-1.157-7.757-1.593-6.531-1.452-9.8-2.035-12.792.562l-.037.034-.048.014a23.562,23.562,0,0,1-7.787.924h0a.238.238,0,0,1-.223-.153h0a3.363,3.363,0,0,0-.218-.463,3.484,3.484,0,0,0-2.123-1.637l-4.583-1.239a3.676,3.676,0,0,0-.544-.1h0a.238.238,0,0,1-.213-.237Zm2.209,24.083a1.553,1.553,0,0,1-.731.945,1.549,1.549,0,0,1-.777.21,1.586,1.586,0,0,1-.409-.055l-4.586-1.239a1.564,1.564,0,0,1-1.1-1.916l3.729-13.792a1.525,1.525,0,0,1,.627-.88.623.623,0,0,1,.112-.074,1.576,1.576,0,0,1,.765-.2,1.594,1.594,0,0,1,.413.056l4.582,1.239a1.557,1.557,0,0,1,.949.731,1.545,1.545,0,0,1,.151,1.186Zm33.271,3.646h0a1.516,1.516,0,0,1-1.031.562,1.536,1.536,0,0,1-1.128-.329l-7.493-6a.962.962,0,0,0-.708-.209.975.975,0,0,0-.657.357.968.968,0,0,0-.208.715.963.963,0,0,0,.358.651l2.359,1.892,4.676,3.742a1.528,1.528,0,0,1,.566,1.029,1.529,1.529,0,0,1-.317,1.117l-.074.091a1.527,1.527,0,0,1-1.03.565,1.511,1.511,0,0,1-1.128-.332l-1.757-1.4-6.033-4.832a.971.971,0,0,0-1.364.15.974.974,0,0,0-.1,1.065.871.871,0,0,0,.108.164.928.928,0,0,0,.14.138l6.363,5.1a1.512,1.512,0,0,1,.566,1.032,1.511,1.511,0,0,1-.329,1.128l-.1.12a1.533,1.533,0,0,1-1.028.566,1.541,1.541,0,0,1-1.131-.327l-7.287-5.839a.971.971,0,0,0-1.364.149.974.974,0,0,0,.15,1.366l4.974,3.985.02.029a1.542,1.542,0,0,1-.059,1.83l-.1.121a1.537,1.537,0,0,1-1.032.566,1.684,1.684,0,0,1-.174.01,1.521,1.521,0,0,1-.956-.338l-14.9-11.941a.239.239,0,0,1-.08-.248l3.593-13.3a.238.238,0,0,1,.23-.176h.078a35.4,35.4,0,0,0,4.909-.264h0a.238.238,0,0,1,.232.368l0,0a52.643,52.643,0,0,0-2.818,4.912h0a.968.968,0,0,0,.084,1.024v0a4.951,4.951,0,0,0,1.041,1.044,5.172,5.172,0,0,0,1.853.884,5.715,5.715,0,0,0,1.435.18c.159,0,.3,0,.422-.013a8.985,8.985,0,0,0,6.418-3.891v0a.239.239,0,0,1,.338-.049h0c2.132,1.631,4.047,3.249,5.979,4.9h.027l.067.08a.25.25,0,0,1,.027.023l.073.064c.69.589,1.342,1.146,1.991,1.688a46.213,46.213,0,0,0,4.022,3.091l.018.012,1.017.817a1.513,1.513,0,0,1,.566,1.029A1.538,1.538,0,0,1-4510.08-215.745Zm4.505-2.959a3.535,3.535,0,0,1-.508.036,7.689,7.689,0,0,1-4-1.54l-.032-.025c-.379-.247-.781-.528-1.228-.858-.464-.342-.975-.74-1.61-1.251-.752-.609-1.545-1.281-2.361-1.972l-.316-.27-.554-.471a102.49,102.49,0,0,0-9.49-7.452.965.965,0,0,0-.729-.147.96.96,0,0,0-.618.411.973.973,0,0,0,.264,1.349c.407.272.819.558,1.26.872h0a.237.237,0,0,1,.054.334h0a7.066,7.066,0,0,1-4.985,3.111,3.484,3.484,0,0,1-2.534-.751h0a.24.24,0,0,1-.058-.3h0c2.512-4.758,4.151-6.808,6.048-7.564,2.087-.833,4.9-.21,9.547.823l.118.026c2.178.482,4.886,1.081,8.086,1.649h0a.237.237,0,0,1,.188.173l3.653,13.514a.238.238,0,0,1-.2.3Zm8.607-.826-4.583,1.239a1.587,1.587,0,0,1-.415.055,1.555,1.555,0,0,1-.773-.206,1.566,1.566,0,0,1-.732-.947l-3.726-13.793a1.558,1.558,0,0,1,.944-1.863,1.4,1.4,0,0,1,.149-.05l4.589-1.241a1.508,1.508,0,0,1,1,.062l.034.014c.048.023.1.048.158.08a1.546,1.546,0,0,1,.726.941l3.726,13.793A1.564,1.564,0,0,1-4496.967-219.53Z" transform="translate(4552.952 264.84)"/></g><g transform="translate(-4534.171 -251.537)"><path class="a" d="M-4374.859-143.159a10.478,10.478,0,0,1-.091,1.392.975.975,0,0,1-.961.842,1.183,1.183,0,0,1-.132-.008.965.965,0,0,1-.642-.374.962.962,0,0,1-.189-.718,8.71,8.71,0,0,0,.074-1.133,8.788,8.788,0,0,0-8.778-8.778,8.788,8.788,0,0,0-8.779,8.778,8.542,8.542,0,0,0,.074,1.133.961.961,0,0,1-.19.718.962.962,0,0,1-.643.373.972.972,0,0,1-1.092-.832,10.451,10.451,0,0,1-.091-1.392,10.733,10.733,0,0,1,10.721-10.721A10.734,10.734,0,0,1-4374.859-143.159Z" transform="translate(4396.3 153.88)"/></g></g></svg>