<svg xmlns="http://www.w3.org/2000/svg" width="65.61" height="58" viewBox="0 0 65.61 58"><defs><style>.a{fill:#fff;}</style></defs><g transform="translate(3559.317 -5250.11)"><path class="a" d="M-3436.026,5300.161l-12.491-12.615.086-.131a23.887,23.887,0,0,0,3.993-13.255,24.077,24.077,0,0,0-24.05-24.05,24.078,24.078,0,0,0-24.051,24.05,23.894,23.894,0,0,0,3.5,12.482q.471.773,1,1.5l.017.022c.049.067.1.136.146.2q.349.478.723.937c.136.168.274.332.416.5q.608.71,1.272,1.371.558.558,1.152,1.077c.063.056.126.11.19.163s.139.12.209.179c.033.027.065.055.1.081.27.226.543.443.824.655.022.019.045.035.067.052h0c.151.114.3.225.457.334l.119.084a23.921,23.921,0,0,0,4.233,2.4q.817.36,1.666.658.74.261,1.5.473a23.949,23.949,0,0,0,6.461.882,23.905,23.905,0,0,0,13.256-3.992l.13-.087,12.491,12.616a4.625,4.625,0,0,0,3.292,1.363,4.634,4.634,0,0,0,3.293-1.363,4.634,4.634,0,0,0,1.363-3.294A4.625,4.625,0,0,0-3436.026,5300.161Zm-1.443,5.141a2.6,2.6,0,0,1-.848.57,2.653,2.653,0,0,1-1,.2,2.594,2.594,0,0,1-1.85-.766l-4.229-4.353-8.058-8.058-1.423-1.425-.013-.013-.014.011c-.253.2-.468.361-.678.512a21.819,21.819,0,0,1-12.905,4.19,21.908,21.908,0,0,1-6.093-.858,21.74,21.74,0,0,1-2.96-1.09,22.138,22.138,0,0,1-3.468-1.967c-.141-.1-.281-.2-.419-.3l-.059-.042c-.018-.013-.035-.025-.052-.04q-.476-.349-.931-.727l-.212-.176c-.067-.057-.134-.114-.2-.171q-.5-.433-.973-.894c-.5-.493-.986-1.009-1.441-1.547-.139-.164-.277-.333-.411-.5-.161-.2-.318-.4-.47-.611-.083-.11-.163-.221-.243-.333-.055-.075-.108-.151-.161-.228q-.326-.469-.627-.955a21.888,21.888,0,0,1-3.291-11.566,22.036,22.036,0,0,1,22.01-22.011,22.035,22.035,0,0,1,22.009,22.011,21.819,21.819,0,0,1-4.191,12.905c-.149.206-.312.423-.513.68l-.011.015,1.436,1.435.016.012,3.716,3.715,0,0,1.434,1.433.017.011,7.11,7.236a2.589,2.589,0,0,1,.767,1.848A2.6,2.6,0,0,1-3437.469,5305.3Z" transform="translate(-59.045 0)"/><path class="a" d="M-3431.473,5291.969a19.219,19.219,0,0,0-19.2,19.2,19.075,19.075,0,0,0,2.733,9.862h0c.127.214.26.425.4.634.051.077.1.154.155.232.1.146.2.291.3.434l0,.006c.055.079.112.156.171.234.07.1.144.193.218.29.132.171.266.34.405.507a18.98,18.98,0,0,0,1.579,1.7c.158.15.316.3.478.439.182.162.366.32.555.476q.035.031.072.06l.141.115c.214.171.431.338.652.5.1.072.2.142.294.211.178.126.359.249.543.37a19.193,19.193,0,0,0,3.613,1.855q.683.261,1.391.475a19.154,19.154,0,0,0,5.492.8,19.219,19.219,0,0,0,19.2-19.2A19.219,19.219,0,0,0-3431.473,5291.969Zm0,36.356a17.11,17.11,0,0,1-5.058-.761c-.471-.146-.933-.311-1.385-.5a17.008,17.008,0,0,1-2.577-1.311c-.187-.116-.372-.237-.553-.359-.1-.069-.2-.137-.3-.208h0c-.225-.157-.445-.321-.66-.49-.008-.006-.016-.014-.024-.019-.063-.05-.127-.1-.191-.153-.191-.151-.376-.308-.559-.471h0c-.126-.109-.249-.22-.372-.333a17.161,17.161,0,0,1-1.681-1.807c-.135-.168-.269-.34-.4-.514-.073-.1-.145-.193-.214-.293h0q-.242-.335-.464-.685-.077-.119-.151-.239c-.132-.212-.26-.428-.382-.648,0,0,0,0,0,0a17.031,17.031,0,0,1-2.184-8.37,17.176,17.176,0,0,1,17.156-17.158,17.177,17.177,0,0,1,17.158,17.158A17.177,17.177,0,0,1-3431.473,5328.325Z" transform="translate(-96.059 -37.012)"/><path class="a" d="M-3326.469,5426.807a4.537,4.537,0,0,0-6.4,0,4.531,4.531,0,0,0,0,6.4,4.53,4.53,0,0,0,6.4,0A4.531,4.531,0,0,0-3326.469,5426.807Zm-1.286,5.115a2.711,2.711,0,0,1-3.829,0,2.711,2.711,0,0,1,0-3.83,2.709,2.709,0,0,1,3.828,0A2.71,2.71,0,0,1-3327.755,5431.921Z" transform="translate(-199.051 -155.063)"/><path class="a" d="M-3380.8,5346.235l-11.251-11.251a2.36,2.36,0,0,0-3.33,0L-3408.3,5347.9l4.6,4.6-3.135,3.134c.083.145.17.289.258.431.05.08.1.16.151.239q.222.349.464.684h0c.047.067.1.134.144.2l.665-.664h0l2.739-2.739,2.806,2.807-3.5,3.5c.124.107.249.211.378.313q.1.078.191.153l.024.02c.216.168.436.333.66.49h0l.2.14.738-.739,2.6-2.6,4.6,4.6,12.915-12.915A2.358,2.358,0,0,0-3380.8,5346.235Zm-12.917,13.676-12.009-12.011,9.25-9.25,12.01,12.011Zm11.633-11.63-.382.379-.715.715-12.011-12.011.958-.958h0l.137-.138a.538.538,0,0,1,.761,0l11.251,11.25A.54.54,0,0,1-3382.087,5348.281Z" transform="translate(-133.524 -74.433)"/><path class="a" d="M-3520.924,5630.792a4.027,4.027,0,0,0-.251-.317l-.038-.042c-.066-.074-.145-.152-.25-.249-.028-.026-.057-.051-.086-.075l-.009-.008c-.016-.016-.035-.029-.058-.049s-.044-.036-.074-.059l-.075-.057c-.048-.035-.1-.068-.144-.1-.062-.042-.12-.079-.172-.108-.028-.018-.058-.034-.08-.046-.037-.021-.073-.04-.105-.056s-.054-.027-.075-.038c-.042-.021-.083-.041-.125-.058l-.029-.013-.149-.062-.059-.021c-.032-.013-.065-.023-.09-.031l-.078-.025c-.031-.011-.062-.02-.081-.024l-.074-.021c-.021-.006-.041-.01-.066-.016l-.015,0c-.069-.018-.137-.033-.2-.042l-.054-.01c-.025,0-.05-.009-.068-.011l-.073-.011-.091-.011-.072-.007-.088-.006-.077,0a3.692,3.692,0,0,0-.577.018l-.031,0-.037,0-.068.009-.017,0-.084.014a3.729,3.729,0,0,0-1.356.52l-.008-.007-.183.131a3.893,3.893,0,0,0-.483.408,3.868,3.868,0,0,0-.41.487l-.123.186h0a3.767,3.767,0,0,0-.53,2.576,3.812,3.812,0,0,0,.656,1.616,3.962,3.962,0,0,0,.246.312l.006.006c.013.015.027.029.036.04s.035.037.052.055l.068.072c.041.04.081.078.122.115s.06.055.1.088l.06.05c.053.044.11.087.167.129.111.078.227.154.347.224a3.814,3.814,0,0,0,3.877-.078l.007.007.183-.129a3.817,3.817,0,0,0,.483-.41,3.824,3.824,0,0,0,.411-.485l.122-.187h0A3.8,3.8,0,0,0-3520.924,5630.792Zm-1.61,3.662a2.079,2.079,0,0,1-2.937,0,2.08,2.08,0,0,1,0-2.937,2.079,2.079,0,0,1,2.938,0A2.078,2.078,0,0,1-3522.534,5634.454Z" transform="translate(-27.884 -335.185)"/><path class="a" d="M-3543.165,5591.218q-.231-.163-.456-.333h0c-.022-.018-.045-.033-.067-.053-.28-.21-.553-.429-.823-.653l-.312.622c-.8,2.086-1.55,4.438-2.608,5.732l-.032.042a5.926,5.926,0,0,1-.477.542,5.6,5.6,0,0,1-7.915,0,5.6,5.6,0,0,1,0-7.912,5.988,5.988,0,0,1,.543-.479c1.29-1.077,3.661-1.826,5.773-2.639,0,0,0,0,.007,0l.816-.408c-.006-.01-.011-.016-.017-.024q-.525-.731-.995-1.5l-3.078,1.539c-.023.014-.045.027-.066.041a7.93,7.93,0,0,0-6.368,6.393,7.414,7.414,0,0,0,2.107,6.286,7.382,7.382,0,0,0,4.2,2.095,7.364,7.364,0,0,0,5.5-1.419,9.848,9.848,0,0,0,3.013-5.02l1.379-2.76C-3543.086,5591.276-3543.126,5591.248-3543.165,5591.218Z" transform="translate(0 -295.345)"/></g></svg>