<svg xmlns="http://www.w3.org/2000/svg" width="55.113" height="60.293" viewBox="0 0 55.113 60.293"><defs><style>.a{fill:#fff;}</style></defs><g transform="translate(0 0.001)"><path class="a" d="M-1638.014,6210.644a4.19,4.19,0,0,1,5.559-1.365l9.687,4.975.124-.128a4.167,4.167,0,0,1,3.019-1.286h6.529a2.29,2.29,0,0,0,.537-.043l.036-.016a2.559,2.559,0,0,0,.407-.348l.06-.057c5.19-4.885,9.575-4.575,14.565-2.6a3.706,3.706,0,0,0,1.739.376h1.66l.054-.166a2.944,2.944,0,0,1,2.8-2.021h4.8a2.948,2.948,0,0,1,2.943,2.946v12.6a2.946,2.946,0,0,1-2.943,2.943h-4.8a2.944,2.944,0,0,1-2.8-2.02l-.054-.165h-2.873a1.5,1.5,0,0,0-.581.087c-.1.028-.222.063-.379.1l-12.421,3.323c-.55.148-1.053.293-1.539.435a15.579,15.579,0,0,1-4.258.84,9.335,9.335,0,0,1-5.258-1.9l-.024-.017-2.372-1.692-12.942-9.215A4.156,4.156,0,0,1-1638.014,6210.644Zm45.747,12.864a1.038,1.038,0,0,0,1.026,1.022h4.8a1.036,1.036,0,0,0,1.023-1.022v-12.6a1.025,1.025,0,0,0-1.023-1.026h-4.8a1.039,1.039,0,0,0-1.026,1.026Zm-43.358-8.839,12.935,9.211h0l0,0,2.355,1.679c3.244,2.158,4.706,1.735,7.906.808.493-.143,1-.291,1.576-.446l12.422-3.323.356-.1a3.119,3.119,0,0,1,1.1-.159h2.78V6212.07h-1.58l-.068,0a5.377,5.377,0,0,1-2.362-.509c-4.545-1.793-8.056-2.006-12.545,2.22l-.059.055a2.686,2.686,0,0,1-2.295.929h-6.529a2.282,2.282,0,0,0-1.992,1.175l-.011.021a2.266,2.266,0,0,0-.275,1.083,2.278,2.278,0,0,0,2.278,2.275h10.581a.962.962,0,0,1,.96.96.961.961,0,0,1-.96.96h-10.581a4.2,4.2,0,0,1-4.2-4.2,4.145,4.145,0,0,1,.1-.915l.04-.182-9.65-4.955a2.273,2.273,0,0,0-3.049.665A2.257,2.257,0,0,0-1635.626,6214.669Z" transform="translate(1638.611 -6168.765)"/><g transform="translate(4.526 -0.001)"><g transform="translate(0 0)"><path class="a" d="M-1537.017,5890.527h4.994l-.2-.264a5.515,5.515,0,0,1-1.116-3.339,5.571,5.571,0,0,1,5.566-5.564,4.989,4.989,0,0,1,4.285,2.08,22.4,22.4,0,0,1,2.438,5.057l.154.39.154-.39a22.414,22.414,0,0,1,2.438-5.057,4.99,4.99,0,0,1,4.285-2.08,5.571,5.571,0,0,1,5.565,5.564,5.514,5.514,0,0,1-1.116,3.339l-.2.264h4.994a3.277,3.277,0,0,1,3.273,3.273v2.293a3.28,3.28,0,0,1-2.182,3.085l-.109.039v16.456a3.277,3.277,0,0,1-3.273,3.273h-27.658a3.277,3.277,0,0,1-3.273-3.273v-16.456l-.109-.039a3.28,3.28,0,0,1-2.182-3.085V5893.8A3.277,3.277,0,0,1-1537.017,5890.527Zm14.571-.225q-.211-.53-.4-1.013a21.653,21.653,0,0,0-2.212-4.683,3.025,3.025,0,0,0-2.714-1.285,3.608,3.608,0,0,0-3.6,3.6,3.607,3.607,0,0,0,3.6,3.6h5.417Zm8.426-6.981c-2.457,0-3.139,1.435-4.926,5.968q-.191.482-.4,1.013l-.09.225h5.417a3.607,3.607,0,0,0,3.6-3.6A3.608,3.608,0,0,0-1514.021,5883.321Zm-2.457,33.664h9.41a1.312,1.312,0,0,0,1.311-1.312v-16.308h-10.72Zm0-19.582h11.7a1.313,1.313,0,0,0,1.312-1.31V5893.8a1.313,1.313,0,0,0-1.312-1.311h-11.7Zm-6.876,19.582h4.914v-24.5h-4.914Zm-12.683-1.312a1.312,1.312,0,0,0,1.311,1.312h9.41v-17.619h-10.72Zm-2.292-19.58a1.312,1.312,0,0,0,1.312,1.31h11.7v-4.914h-11.7a1.313,1.313,0,0,0-1.312,1.311Z" transform="translate(1540.29 -5881.36)"/></g></g></g></svg>