<svg xmlns="http://www.w3.org/2000/svg" width="180" height="53.186" viewBox="0 0 180 53.186"><defs><style>.a{fill:#fff;}</style></defs><g transform="translate(-360 -362.68)"><g transform="translate(360 362.68)"><g transform="translate(0 0)"><path class="a" d="M376.006,389.8c.243-2.329-5.086-4.767-8.108-6.126a16.852,16.852,0,0,1-4.953-3.885c-3.184-3.992-2.9-10.513,1.069-14.025,4.608-4.719,15.351-3.724,19.291.938l-4.484,6.257c-2-1.788-2.924-2.421-5.527-2.45-3.385-.157-4.875,2.821-2.529,5.214,1.764,1.72,4.211,2.217,6.491,3.545,4.484,2.25,7.628,4.908,7.612,10.427.041,6.626-5.962,10.86-12.513,10.74-4.489.022-10.5-1.876-12.357-6l4.745-5.683a9.617,9.617,0,0,0,3.545,2.841C370.818,392.86,375.836,393.62,376.006,389.8Z" transform="translate(-360 -362.68)"/><path class="a" d="M575.282,403.413h-7.821v-36.5h7.821v23.2l6.413-10.167h9.8l-7.612,10.584,8.707,12.879h-10.01l-7.3-11.21Z" transform="translate(-536.343 -366.281)"/><path class="a" d="M1078.969,457.6l-1.929-5.683a16.366,16.366,0,0,1,8.707-2.294q5.11,0,7.43,2.45t2.32,7.508v14.13h-6.778v-2.138q-1.72,2.451-6.152,2.45a7.363,7.363,0,0,1-5.37-1.981,8.247,8.247,0,0,1,.287-11.158,8.957,8.957,0,0,1,6.126-2.033,7.144,7.144,0,0,1,4.588,1.3q.26-4.014-3.233-4.015A16.687,16.687,0,0,0,1078.969,457.6Zm6.257,9.906a3.454,3.454,0,0,0,2.972-1.2v-1.46a5.025,5.025,0,0,0-2.972-.782,2.626,2.626,0,0,0-1.616.469,1.54,1.54,0,0,0-.625,1.3,1.419,1.419,0,0,0,.625,1.225A2.733,2.733,0,0,0,1085.226,467.508Z" transform="translate(-967.891 -436.581)"/><path class="a" d="M1261.952,474.893h-7.821V451.43h7.821v1.877a5.459,5.459,0,0,1,4.849-2.294,6.143,6.143,0,0,1,3.65.887l-2.763,7.3a5.706,5.706,0,0,0-2.868-.887,3.079,3.079,0,0,0-2.867,1.668Z" transform="translate(-1120.014 -437.76)"/><path class="a" d="M1398.525,403.413H1390.7v-36.5h7.821v23.2l6.413-10.167h9.8l-7.612,10.584,8.707,12.879h-10.01l-7.3-11.21Z" transform="translate(-1236.104 -366.281)"/><path class="a" d="M975.606,380.755V366.916h-7.821V377.18A12.667,12.667,0,0,1,975.606,380.755Z" transform="translate(-876.618 -366.281)"/><path class="a" d="M978.942,510.334a4.267,4.267,0,0,1-2.033.834q-1.3,0-1.3-3.024v-6.6c-2.245,0-4.57,1.884-7.821,8.373v1.2q0,7.351,5.839,7.351a10.469,10.469,0,0,0,6.882-2.19Z" transform="translate(-876.619 -480.71)"/></g><g transform="translate(91.339 42.152)"><path class="a" d="M969.052,655.458V644.731h1.318l4.031,5.5,3.862-5.5H979.5v10.727h-1.3v-8.674l-3.8,5.333h-.2l-3.846-5.287v8.628Z" transform="translate(-969.052 -644.578)"/><path class="a" d="M1090.81,645.3a5.665,5.665,0,0,1,7.831-.046,5.344,5.344,0,0,1,1.563,3.969,5.407,5.407,0,0,1-1.563,3.954,5.3,5.3,0,0,1-3.908,1.563,5.583,5.583,0,0,1-3.923-9.44Zm1.011,6.988a3.9,3.9,0,0,0,2.912,1.226,3.826,3.826,0,0,0,2.942-1.226,4.3,4.3,0,0,0,1.149-3.065,4.23,4.23,0,0,0-1.18-3.065,4.107,4.107,0,0,0-5.839-.015,4.259,4.259,0,0,0-1.165,3.08A4.309,4.309,0,0,0,1091.821,652.291Z" transform="translate(-1071.227 -643.709)"/><path class="a" d="M1199.67,645.957v-1.226h8.811v1.226h-3.754v9.5h-1.3v-9.5Z" transform="translate(-1165.07 -644.578)"/><path class="a" d="M1297.427,645.3a5.665,5.665,0,0,1,7.831-.046,5.344,5.344,0,0,1,1.563,3.969,5.407,5.407,0,0,1-1.563,3.954,5.3,5.3,0,0,1-3.908,1.563,5.583,5.583,0,0,1-3.923-9.44Zm1.012,6.988a3.9,3.9,0,0,0,2.911,1.226,3.826,3.826,0,0,0,2.943-1.226,4.3,4.3,0,0,0,1.149-3.065,4.232,4.232,0,0,0-1.18-3.065,4.107,4.107,0,0,0-5.839-.015,4.258,4.258,0,0,0-1.165,3.08A4.308,4.308,0,0,0,1298.438,652.291Z" transform="translate(-1246.845 -643.709)"/><path class="a" d="M1420.66,655.285h-1.3V644.558c.23,0,.736,0,1.548-.015s1.257-.015,1.333-.015c2.544,0,3.816,1.057,3.816,3.187a2.972,2.972,0,0,1-.69,1.992,3.092,3.092,0,0,1-1.639,1.042l3.57,4.536H1425.7l-3.295-4.291h-1.747Zm0-9.5v3.985h1.578a2.7,2.7,0,0,0,1.7-.552,1.794,1.794,0,0,0,.736-1.486c0-1.318-.843-1.977-2.513-1.977C1421.84,645.753,1421.334,645.768,1420.66,645.783Z" transform="translate(-1351.797 -644.404)"/><path class="a" d="M1514.4,646.513a2.591,2.591,0,0,1,.873-1.992,3.343,3.343,0,0,1,2.36-.812,4.069,4.069,0,0,1,2.958,1.119l-.705.981a2.945,2.945,0,0,0-2.176-.874c-1.18,0-1.931.613-1.931,1.578,0,2.651,5.241,1.655,5.241,5.318a2.572,2.572,0,0,1-1.011,2.115,3.8,3.8,0,0,1-2.483.8,4.95,4.95,0,0,1-2.023-.429,2.7,2.7,0,0,1-1.364-1.18l.75-.889a3.473,3.473,0,0,0,2.651,1.272c1.18,0,2.1-.628,2.1-1.67C1519.639,649.226,1514.4,650.069,1514.4,646.513Z" transform="translate(-1432.358 -643.709)"/></g></g><g transform="translate(415.954 370.258)"><path class="a" d="M751.774,542.569c-3.887,3.816-13.611,1.545-13.611,1.545,12.655-5.513,12.193-10.265,12.193-10.265-15.954-.977-15.7-16.388-15.259-19.086,2.1,5.529,13.647,10.454,16.571,13.269C756.486,531.824,754.77,539.627,751.774,542.569Z" transform="translate(-734.676 -499.535)"/><path class="a" d="M776.616,423.164s-4.54.236-8.511,7.047c-3.914,6.7-12.425,20.712-12.686,21.146,1.391-6.975-1-11.074-5.1-14.138-.21-.239-7.026-4.535-8.39-5.349-3.7-2.206-7.907-5.108-8.732-9.655-.481-2.521.222-7.328,2.277-9.027,0,0,1.329,6.674,11.275,11.349,10.43,4.9,10.549,13.6,10.549,13.6s3.06-3.329-1.031-10.218C760.883,420.131,768.484,415.083,776.616,423.164Z" transform="translate(-733.051 -413.188)"/></g></g></svg>